<svg width="28" height="27" viewBox="0 0 28 27" fill="none" xmlns="http://www.w3.org/2000/svg">
<path d="M8.62891 18H7.53906V10.7754L5.35352 11.5781V10.5938L8.45898 9.42773H8.62891V18ZM16.9785 11.6953C16.9785 12.1211 16.8652 12.5 16.6387 12.832C16.416 13.1641 16.1133 13.4238 15.7305 13.6113C16.1758 13.8027 16.5273 14.082 16.7852 14.4492C17.0469 14.8164 17.1777 15.2324 17.1777 15.6973C17.1777 16.4355 16.9277 17.0234 16.4277 17.4609C15.9316 17.8984 15.2773 18.1172 14.4648 18.1172C13.6445 18.1172 12.9863 17.8984 12.4902 17.4609C11.998 17.0195 11.752 16.4316 11.752 15.6973C11.752 15.2363 11.877 14.8203 12.127 14.4492C12.3809 14.0781 12.7305 13.7969 13.1758 13.6055C12.7969 13.418 12.498 13.1582 12.2793 12.8262C12.0605 12.4941 11.9512 12.1172 11.9512 11.6953C11.9512 10.9766 12.1816 10.4062 12.6426 9.98438C13.1035 9.5625 13.7109 9.35156 14.4648 9.35156C15.2148 9.35156 15.8203 9.5625 16.2812 9.98438C16.7461 10.4062 16.9785 10.9766 16.9785 11.6953ZM16.0938 15.6738C16.0938 15.1973 15.9414 14.8086 15.6367 14.5078C15.3359 14.207 14.9414 14.0566 14.4531 14.0566C13.9648 14.0566 13.5723 14.2051 13.2754 14.502C12.9824 14.7988 12.8359 15.1895 12.8359 15.6738C12.8359 16.1582 12.9785 16.5391 13.2637 16.8164C13.5527 17.0938 13.9531 17.2324 14.4648 17.2324C14.9727 17.2324 15.3711 17.0938 15.6602 16.8164C15.9492 16.5352 16.0938 16.1543 16.0938 15.6738ZM14.4648 10.2422C14.0391 10.2422 13.6934 10.375 13.4277 10.6406C13.166 10.9023 13.0352 11.2598 13.0352 11.7129C13.0352 12.1465 13.1641 12.498 13.4219 12.7676C13.6836 13.0332 14.0312 13.166 14.4648 13.166C14.8984 13.166 15.2441 13.0332 15.502 12.7676C15.7637 12.498 15.8945 12.1465 15.8945 11.7129C15.8945 11.2793 15.7598 10.9258 15.4902 10.6523C15.2207 10.3789 14.8789 10.2422 14.4648 10.2422ZM21.7598 13.4238H24.1387V14.4492H21.7598V17.1445H20.6699V14.4492H18.291V13.4238H20.6699V10.9336H21.7598V13.4238Z" fill="white"/>
<rect x="1" y="1" width="26" height="25" stroke="#2F2F2F" stroke-width="2"/>
</svg>
