<?xml version="1.0" standalone="no"?>
<!DOCTYPE svg PUBLIC "-//W3C//DTD SVG 20010904//EN"
 "http://www.w3.org/TR/2001/REC-SVG-20010904/DTD/svg10.dtd">
<svg version="1.0" xmlns="http://www.w3.org/2000/svg"
 width="64.000000pt" height="64.000000pt" viewBox="0 0 64.000000 64.000000"
 preserveAspectRatio="xMidYMid meet">

<g transform="translate(0.000000,64.000000) scale(0.100000,-0.100000)"
fill="#000000" stroke="none">
<path d="M318 563 c-28 -14 -37 -46 -18 -58 6 -3 10 -28 10 -56 0 -42 -3 -49
-20 -49 -35 0 -60 -35 -60 -85 l0 -45 -39 0 c-21 0 -43 -6 -49 -12 -15 -19 13
-170 35 -185 11 -9 60 -13 155 -13 184 0 178 -5 178 170 0 117 -2 132 -20 150
-11 11 -29 20 -40 20 -17 0 -20 7 -20 49 0 28 5 53 10 56 21 13 9 44 -22 59
-37 19 -64 19 -100 -1z m112 -33 c0 -6 -27 -10 -60 -10 -33 0 -60 4 -60 10 0
6 27 10 60 10 33 0 60 -4 60 -10z m-18 -87 c3 -58 3 -58 38 -63 23 -3 36 -11
38 -22 3 -16 -8 -18 -118 -18 -110 0 -121 2 -118 18 2 11 15 19 38 22 35 5 35
5 38 63 l3 57 39 0 39 0 3 -57z m78 -132 c0 -5 -6 -12 -12 -14 -10 -4 -9 -8 2
-16 13 -10 13 -12 0 -21 -13 -9 -13 -11 0 -20 13 -9 13 -11 0 -20 -13 -9 -13
-11 0 -20 13 -9 13 -11 0 -21 -11 -8 -12 -12 -2 -16 33 -13 4 -23 -68 -23 -44
0 -80 3 -80 8 1 4 5 27 10 52 10 56 0 70 -51 70 -35 0 -39 3 -39 25 l0 25 120
0 c66 0 120 -4 120 -9z m-160 -71 c0 -6 -37 -10 -90 -10 -53 0 -90 4 -90 10 0
6 37 10 90 10 53 0 90 -4 90 -10z m-11 -77 c-16 -85 -14 -83 -79 -83 -65 0
-63 -2 -79 83 l-8 47 87 0 87 0 -8 -47z m169 -60 c-4 -21 -64 -31 -81 -14 -6
6 -28 11 -50 11 -23 0 -36 4 -32 10 3 6 42 10 86 10 71 0 80 -2 77 -17z"/>
</g>
</svg>
