<?xml version="1.0" standalone="no"?>
<!DOCTYPE svg PUBLIC "-//W3C//DTD SVG 20010904//EN"
 "http://www.w3.org/TR/2001/REC-SVG-20010904/DTD/svg10.dtd">
<svg version="1.0" xmlns="http://www.w3.org/2000/svg"
 width="64.000000pt" height="64.000000pt" viewBox="0 0 64.000000 64.000000"
 preserveAspectRatio="xMidYMid meet">

<g transform="translate(0.000000,64.000000) scale(0.100000,-0.100000)"
fill="#000000" stroke="none">
<path d="M173 500 c-27 -11 -43 -40 -43 -79 0 -23 -4 -29 -15 -24 -9 3 -25 -3
-35 -12 -17 -15 -20 -31 -20 -95 0 -51 5 -82 15 -96 8 -10 15 -29 15 -41 0
-19 6 -23 30 -23 23 0 30 4 30 20 0 19 7 20 170 20 163 0 170 -1 170 -20 0
-16 7 -20 30 -20 25 0 30 4 30 24 0 13 7 29 15 36 11 9 15 34 15 95 0 69 -3
85 -20 100 -10 9 -26 15 -33 12 -11 -4 -16 6 -20 35 -9 68 -19 73 -175 75 -75
1 -147 -2 -159 -7z m308 -26 c10 -13 10 -17 -2 -26 -11 -7 -11 -11 -1 -15 21
-8 13 -23 -13 -23 -14 0 -25 -4 -25 -10 0 -5 11 -10 25 -10 14 0 25 -4 25 -10
0 -5 -16 -10 -35 -10 -19 0 -35 -4 -35 -10 0 -5 16 -10 35 -10 30 0 35 -3 35
-22 0 -23 0 -23 -170 -23 l-170 0 0 81 c0 49 5 85 12 92 8 8 58 12 159 12 121
0 149 -3 160 -16z m-353 -192 c3 -92 2 -93 -20 -90 -21 3 -23 8 -26 82 -3 91
1 109 25 104 15 -3 18 -17 21 -96z m427 3 c0 -86 -1 -90 -22 -93 -22 -3 -23
-1 -23 86 0 92 4 105 30 100 12 -3 15 -20 15 -93z m-67 -12 c3 -10 -35 -13
-167 -13 -157 0 -184 4 -164 24 4 3 79 5 167 4 117 -2 160 -6 164 -15z m2 -58
l0 -25 -170 0 -170 0 0 25 0 25 170 0 170 0 0 -25z m-360 -55 c0 -5 -4 -10
-10 -10 -5 0 -10 5 -10 10 0 6 5 10 10 10 6 0 10 -4 10 -10z m400 0 c0 -5 -4
-10 -10 -10 -5 0 -10 5 -10 10 0 6 5 10 10 10 6 0 10 -4 10 -10z"/>
</g>
</svg>
