<?xml version="1.0" standalone="no"?>
<!DOCTYPE svg PUBLIC "-//W3C//DTD SVG 20010904//EN"
 "http://www.w3.org/TR/2001/REC-SVG-20010904/DTD/svg10.dtd">
<svg version="1.0" xmlns="http://www.w3.org/2000/svg"
 width="64.000000pt" height="64.000000pt" viewBox="0 0 64.000000 64.000000"
 preserveAspectRatio="xMidYMid meet">

<g transform="translate(0.000000,64.000000) scale(0.100000,-0.100000)"
fill="#000000" stroke="none">
<path d="M340 470 l0 -90 -27 7 c-16 5 -53 8 -84 7 -71 0 -120 -29 -148 -88
-27 -54 -26 -81 1 -136 61 -120 255 -119 316 0 17 32 22 56 18 83 -3 32 -1 38
12 35 13 -3 18 -17 20 -67 3 -58 1 -66 -24 -92 -15 -16 -36 -29 -46 -29 -10 0
-18 -4 -18 -10 0 -6 40 -10 100 -10 60 0 100 4 100 10 0 6 -8 10 -18 10 -10 0
-30 13 -45 28 -23 24 -27 37 -27 89 0 61 0 61 38 80 54 27 72 69 72 176 l0 87
-120 0 -120 0 0 -90z m220 -21 c0 -87 -1 -92 -29 -120 -41 -41 -101 -41 -142
0 -28 28 -29 33 -29 120 l0 91 100 0 100 0 0 -91z m-350 -79 c0 -18 39 -31 59
-20 27 14 47 4 71 -35 24 -39 28 -115 5 -115 -23 0 -55 -37 -55 -64 0 -26 -21
-36 -78 -36 -32 0 -33 1 -18 22 20 29 20 34 -4 58 -25 25 -35 25 -61 -1 -28
-28 -40 -14 -47 52 -5 49 -4 51 16 40 11 -6 27 -8 36 -5 30 12 30 57 -2 69
-13 5 -11 10 13 25 32 21 65 26 65 10z m55 0 c3 -5 -3 -10 -14 -10 -11 0 -23
5 -26 10 -3 6 3 10 14 10 11 0 23 -4 26 -10z m113 -54 c13 -19 22 -48 22 -70
0 -44 -25 -103 -50 -116 -14 -7 -12 0 7 38 30 57 26 106 -11 163 -21 31 -23
37 -8 28 10 -6 28 -26 40 -43z m-238 -16 c0 -13 -7 -20 -20 -20 -13 0 -20 7
-20 20 0 13 7 20 20 20 13 0 20 -7 20 -20z m45 -150 c0 -18 -6 -26 -23 -28
-13 -2 -25 3 -28 12 -10 26 4 48 28 44 17 -2 23 -10 23 -28z m148 4 c-9 -15
-19 -21 -21 -15 -4 13 16 41 29 41 5 0 2 -12 -8 -26z m145 -34 c11 -18 10 -20
-18 -20 -28 0 -29 2 -18 20 7 11 15 20 18 20 3 0 11 -9 18 -20z"/>
<path d="M236 294 c-9 -8 -16 -19 -16 -24 0 -11 29 -40 40 -40 11 0 40 29 40
40 0 5 -7 16 -16 24 -8 9 -19 16 -24 16 -5 0 -16 -7 -24 -16z m44 -24 c0 -13
-7 -20 -20 -20 -13 0 -20 7 -20 20 0 13 7 20 20 20 13 0 20 -7 20 -20z"/>
</g>
</svg>
