<?xml version="1.0" standalone="no"?>
<!DOCTYPE svg PUBLIC "-//W3C//DTD SVG 20010904//EN"
 "http://www.w3.org/TR/2001/REC-SVG-20010904/DTD/svg10.dtd">
<svg version="1.0" xmlns="http://www.w3.org/2000/svg"
 width="64.000000pt" height="64.000000pt" viewBox="0 0 64.000000 64.000000"
 preserveAspectRatio="xMidYMid meet">

<g transform="translate(0.000000,64.000000) scale(0.100000,-0.100000)"
fill="#000000" stroke="none">
<path d="M210 551 c-1 -9 -18 -28 -39 -42 -44 -31 -66 -74 -75 -146 -6 -51 3
-74 36 -85 8 -3 0 -19 -20 -44 -34 -42 -52 -90 -52 -136 l0 -28 260 0 260 0 0
29 c0 41 -17 81 -48 113 l-26 28 27 28 c33 34 34 53 6 78 l-21 19 28 5 c40 7
41 44 2 48 -23 3 -28 8 -28 31 0 48 -36 71 -112 71 -78 0 -98 6 -98 30 0 15
-9 18 -50 18 -39 0 -50 -4 -50 -17z m109 -45 c15 -8 33 -22 40 -30 12 -14 5
-16 -65 -16 -66 0 -81 -3 -101 -22 -13 -12 -23 -32 -23 -44 0 -13 -4 -26 -10
-29 -5 -3 -10 -1 -10 4 0 6 -7 11 -15 11 -38 0 4 87 57 120 39 23 88 26 127 6z
m165 -22 c9 -8 16 -26 16 -40 0 -21 -4 -24 -39 -24 -34 0 -38 3 -34 20 4 13 0
20 -9 20 -8 0 -23 9 -33 20 -18 20 -17 20 33 20 33 0 56 -6 66 -16z m-89 -64
c-16 -17 -31 -20 -113 -20 -94 0 -95 0 -77 20 16 17 31 20 113 20 94 0 95 0
77 -20z m133 -27 c-21 -2 -55 -2 -75 0 -21 2 -4 4 37 4 41 0 58 -2 38 -4z
m-180 -43 c26 -35 27 -51 7 -90 -17 -32 -61 -60 -95 -60 -34 0 -78 28 -95 60
-20 39 -19 55 7 90 20 28 26 30 88 30 62 0 68 -2 88 -30z m22 20 c0 -5 -2 -10
-4 -10 -3 0 -8 5 -11 10 -3 6 -1 10 4 10 6 0 11 -4 11 -10z m110 -29 c0 -17 5
-33 10 -36 26 -16 -11 -105 -43 -105 -18 0 -73 73 -59 78 28 9 44 36 38 64 -5
26 -3 28 24 28 27 0 30 -3 30 -29z m-353 -28 c-4 -17 -4 -17 -12 0 -4 9 -4 25
0 35 8 16 8 16 12 0 3 -10 3 -26 0 -35z m283 17 c0 -10 -4 -22 -10 -25 -6 -4
-10 7 -10 25 0 18 4 29 10 25 6 -3 10 -15 10 -25z m130 -20 c0 -10 -4 -22 -10
-25 -6 -4 -10 7 -10 25 0 18 4 29 10 25 6 -3 10 -15 10 -25z m-310 -125 c42
-9 85 2 121 33 27 22 31 23 27 7 -4 -26 -75 -65 -118 -65 -43 0 -114 39 -118
65 -4 16 0 15 27 -7 17 -15 44 -29 61 -33z m314 -19 c22 -47 21 -76 -3 -76
-11 0 -22 6 -25 13 -5 10 -7 9 -12 0 -3 -7 -14 -13 -24 -13 -13 0 -19 11 -24
42 -6 37 -4 44 21 64 32 25 43 20 67 -30z m-388 14 c38 -33 87 -45 139 -36 20
4 51 20 69 36 19 17 36 30 39 30 8 0 37 -78 37 -100 0 -23 -34 -28 -44 -7 -5
9 -7 9 -12 0 -8 -18 -240 -18 -248 0 -5 10 -7 10 -12 0 -10 -21 -44 -16 -44 7
0 22 29 100 37 100 3 0 20 -13 39 -30z"/>
<path d="M204 319 c-10 -17 13 -36 27 -22 12 12 4 33 -11 33 -5 0 -12 -5 -16
-11z"/>
<path d="M284 319 c-10 -17 13 -36 27 -22 12 12 4 33 -11 33 -5 0 -12 -5 -16
-11z"/>
<path d="M232 253 c2 -12 12 -18 28 -18 16 0 26 6 28 18 3 13 -3 17 -28 17
-25 0 -31 -4 -28 -17z"/>
</g>
</svg>
