<?xml version="1.0" standalone="no"?>
<!DOCTYPE svg PUBLIC "-//W3C//DTD SVG 20010904//EN"
 "http://www.w3.org/TR/2001/REC-SVG-20010904/DTD/svg10.dtd">
<svg version="1.0" xmlns="http://www.w3.org/2000/svg"
 width="64.000000pt" height="64.000000pt" viewBox="0 0 64.000000 64.000000"
 preserveAspectRatio="xMidYMid meet">

<g transform="translate(0.000000,64.000000) scale(0.100000,-0.100000)"
fill="#000000" stroke="none">
<path d="M378 551 c-76 -15 -141 -31 -145 -34 -11 -11 16 -8 146 18 68 14 130
25 138 25 10 0 13 -24 13 -105 0 -63 4 -105 10 -105 15 0 13 203 -2 218 -7 7
-14 11 -17 11 -4 -1 -68 -13 -143 -28z"/>
<path d="M330 474 c-57 -14 -108 -31 -112 -37 -4 -7 -8 -81 -8 -165 0 -86 -5
-162 -10 -173 -13 -23 -62 -26 -79 -5 -19 23 -9 70 17 81 23 10 30 25 12 25
-19 0 -60 -48 -60 -70 0 -26 43 -70 68 -70 11 0 30 9 43 19 22 18 24 28 29
137 l5 118 85 21 c47 12 100 25 118 28 l32 7 0 -123 c0 -82 -4 -127 -12 -135
-17 -17 -63 -15 -77 2 -19 23 -9 70 17 81 23 10 30 25 12 25 -19 0 -60 -48
-60 -70 0 -27 43 -70 70 -70 11 0 32 11 45 25 24 24 25 28 25 184 0 88 -3 166
-6 175 -8 21 -28 19 -154 -10z m140 -27 l0 -43 -102 -23 c-57 -12 -111 -25
-120 -27 -15 -5 -18 1 -18 38 l0 44 113 26 c61 14 115 27 120 27 4 1 7 -18 7
-42z"/>
</g>
</svg>
