<?xml version="1.0" standalone="no"?>
<!DOCTYPE svg PUBLIC "-//W3C//DTD SVG 20010904//EN"
 "http://www.w3.org/TR/2001/REC-SVG-20010904/DTD/svg10.dtd">
<svg version="1.0" xmlns="http://www.w3.org/2000/svg"
width="64.000000pt" height="64.000000pt" viewBox="0 0 64.000000 64.000000"
preserveAspectRatio="xMidYMid meet">

<g transform="translate(0.000000,64.000000) scale(0.100000,-0.100000)"
fill="#000000" stroke="none">
<path d="M246 552 c-3 -3 -6 -60 -6 -127 l0 -122 -82 -28 c-46 -15 -94 -38
-108 -52 -24 -22 -24 -25 -10 -51 22 -38 70 -48 143 -30 52 14 57 14 57 -2 0
-11 17 -22 51 -32 l51 -17 116 40 c64 22 126 49 136 59 19 19 19 20 2 39 -33
36 -145 48 -228 25 -16 -5 -18 4 -18 95 0 61 4 101 10 101 6 0 10 -30 10 -70
0 -66 2 -71 26 -82 21 -10 31 -9 52 3 60 33 46 156 -21 198 -36 22 -173 62
-181 53z m75 -28 c114 -33 149 -66 149 -139 0 -52 -15 -75 -50 -75 l-30 0 0
64 c0 68 -17 101 -45 90 -12 -5 -15 -39 -17 -178 l-3 -172 -32 8 -33 9 0 204
c0 113 1 205 3 205 2 0 28 -7 58 -16z m-81 -253 c0 -13 -14 -24 -47 -36 -27
-10 -54 -22 -60 -28 -36 -27 8 -43 65 -23 35 13 42 13 42 1 0 -17 -90 -38
-139 -33 -41 4 -61 29 -45 55 8 13 145 75 182 82 1 1 2 -7 2 -18z m315 -35
c63 -27 48 -40 -107 -92 -88 -29 -98 -31 -98 -15 0 13 19 23 75 41 42 13 80
29 86 36 17 21 -22 25 -84 9 -32 -8 -63 -15 -68 -15 -21 0 -3 34 21 41 44 12
140 9 175 -5z m-315 -6 c0 -14 -55 -40 -82 -39 -17 0 -10 7 27 24 60 29 55 27
55 15z m230 -24 c0 -2 -27 -13 -60 -24 -33 -12 -60 -17 -60 -12 0 5 19 14 43
20 23 6 47 13 52 15 15 5 25 6 25 1z"/>
</g>
</svg>
