<?xml version="1.0" standalone="no"?>
<!DOCTYPE svg PUBLIC "-//W3C//DTD SVG 20010904//EN"
 "http://www.w3.org/TR/2001/REC-SVG-20010904/DTD/svg10.dtd">
<svg version="1.0" xmlns="http://www.w3.org/2000/svg"
 width="64.000000pt" height="64.000000pt" viewBox="0 0 64.000000 64.000000"
 preserveAspectRatio="xMidYMid meet">

<g transform="translate(0.000000,64.000000) scale(0.100000,-0.100000)"
fill="#000000" stroke="none">
<path d="M430 535 c-14 -7 -37 -11 -52 -8 -21 4 -54 -10 -145 -62 -137 -79
-156 -93 -148 -113 3 -8 -2 -23 -11 -33 -15 -17 -14 -23 26 -96 54 -99 78
-133 94 -133 7 0 71 34 143 75 l129 75 17 57 c13 43 25 62 46 74 41 24 57 78
36 122 -25 53 -83 71 -135 42z m83 -7 c48 -25 62 -82 31 -126 -24 -35 -35 -26
-32 29 l3 52 -44 15 c-41 14 -43 16 -26 28 23 17 40 18 68 2z m-135 -17 c14
-8 8 -55 -10 -78 -6 -7 -7 -24 -4 -38 5 -20 13 -25 36 -25 24 0 31 5 36 27 5
20 2 30 -14 44 -23 18 -29 44 -12 54 10 6 78 -11 92 -24 4 -3 -1 -40 -10 -81
l-17 -75 -125 -72 c-69 -40 -130 -73 -135 -73 -13 0 -117 178 -113 192 4 10
245 157 258 157 3 1 11 -3 18 -8z m40 -103 c-2 -13 -10 -23 -18 -23 -8 0 -16
10 -18 23 -3 17 2 22 18 22 16 0 21 -5 18 -22z m-268 -174 c24 -42 49 -78 56
-81 7 -2 67 27 133 66 71 41 121 65 121 57 0 -7 -8 -20 -18 -28 -27 -24 -245
-147 -253 -143 -10 7 -109 182 -109 194 0 32 31 3 70 -65z"/>
<path d="M255 386 c-11 -7 -36 -23 -55 -34 -19 -12 -28 -22 -20 -22 8 0 40 16
70 35 30 19 48 34 40 34 -8 0 -24 -6 -35 -13z"/>
<path d="M250 330 c-36 -22 -59 -40 -51 -40 19 0 121 59 121 71 0 12 4 14 -70
-31z"/>
<path d="M277 293 c-32 -19 -56 -37 -53 -40 7 -7 116 56 116 68 0 11 5 14 -63
-28z"/>
</g>
</svg>
