<?xml version="1.0" standalone="no"?>
<!DOCTYPE svg PUBLIC "-//W3C//DTD SVG 20010904//EN"
 "http://www.w3.org/TR/2001/REC-SVG-20010904/DTD/svg10.dtd">
<svg version="1.0" xmlns="http://www.w3.org/2000/svg"
 width="64.000000pt" height="64.000000pt" viewBox="0 0 64.000000 64.000000"
 preserveAspectRatio="xMidYMid meet">

<g transform="translate(0.000000,64.000000) scale(0.100000,-0.100000)"
fill="#000000" stroke="none">
<path d="M257 500 c-52 -13 -107 -43 -145 -78 -39 -36 -39 -45 -6 -66 24 -17
26 -16 61 15 76 66 170 78 260 34 67 -34 82 -51 60 -72 -14 -15 -18 -14 -47
10 -68 58 -177 56 -242 -5 l-32 -29 30 -24 29 -23 28 24 c18 15 41 24 62 24
41 0 85 -19 85 -36 0 -17 -28 -26 -50 -14 -29 16 -49 12 -75 -15 -32 -31 -32
-59 0 -90 31 -32 59 -32 92 1 19 19 24 32 20 54 -5 23 -1 32 20 46 l27 17 -27
23 c-42 36 -88 40 -143 14 -41 -20 -47 -21 -61 -7 -14 13 -11 18 29 41 71 41
153 33 209 -20 l26 -25 29 24 c28 24 28 26 11 45 -26 29 -107 69 -154 77 -56
9 -143 -17 -187 -55 -21 -19 -40 -28 -50 -24 -23 9 -20 21 11 51 104 97 278
98 387 1 26 -22 46 -35 46 -30 0 16 -71 74 -114 93 -51 22 -139 31 -189 19z
m101 -262 c7 -7 12 -24 12 -38 0 -14 -5 -31 -12 -38 -15 -15 -61 -15 -76 0
-15 15 -15 61 0 76 15 15 61 15 76 0z"/>
</g>
</svg>
